<?xml version="1.0" standalone="no"?>
<!DOCTYPE svg PUBLIC "-//W3C//DTD SVG 20010904//EN"
 "http://www.w3.org/TR/2001/REC-SVG-20010904/DTD/svg10.dtd">
<svg version="1.0" xmlns="http://www.w3.org/2000/svg"
 width="200.000000pt" height="200.000000pt" viewBox="0 0 200.000000 200.000000"
 preserveAspectRatio="xMidYMid meet">
<metadata>
Created by potrace 1.16, written by Peter Selinger 2001-2019
</metadata>
<g transform="translate(0.000000,200.000000) scale(0.100000,-0.100000)"
fill="#000000" stroke="none">
<path d="M496 1525 c-54 -19 -82 -50 -135 -149 -25 -46 -79 -144 -120 -218
-136 -245 -172 -317 -173 -350 -4 -128 118 -212 236 -163 34 15 89 76 101 115
11 35 120 53 181 30 14 -6 56 -39 93 -75 72 -69 102 -85 159 -85 88 1 166 71
178 163 9 65 -31 149 -84 176 -94 47 -159 34 -243 -46 -67 -64 -118 -79 -156
-47 -37 32 -36 55 3 120 32 53 64 111 155 283 16 29 29 68 29 87 0 75 -53 143
-125 163 -49 13 -51 13 -99 -4z"/>
<path d="M1533 953 c-13 -2 -23 -8 -23 -12 0 -5 -22 -38 -48 -75 l-48 -66 -23
31 c-12 17 -36 50 -52 75 -22 32 -37 44 -55 44 l-25 0 3 -157 c3 -155 3 -158
25 -161 22 -3 22 -1 25 114 l3 118 44 -67 c24 -37 47 -67 51 -67 10 0 62 65
79 98 23 44 31 22 31 -88 0 -103 1 -110 20 -110 19 0 20 7 20 165 0 91 -1 164
-2 164 -2 -1 -13 -4 -25 -6z"/>
<path d="M1735 953 c-37 -10 -93 -63 -105 -99 -27 -81 6 -176 73 -211 41 -21
119 -20 152 1 37 24 65 75 65 119 l0 37 -75 0 c-68 0 -75 -2 -75 -20 0 -18 7
-20 56 -20 53 0 55 -1 49 -22 -9 -31 -51 -68 -78 -69 -46 -3 -63 4 -94 34 -86
81 -25 219 90 204 26 -4 47 -14 58 -28 14 -19 21 -21 39 -13 l22 10 -27 32
c-34 41 -94 59 -150 45z"/>
</g>
</svg>
