<?xml version="1.0" standalone="no"?>
<!DOCTYPE svg PUBLIC "-//W3C//DTD SVG 20010904//EN"
 "http://www.w3.org/TR/2001/REC-SVG-20010904/DTD/svg10.dtd">
<svg version="1.0" xmlns="http://www.w3.org/2000/svg"
 width="200.000000pt" height="200.000000pt" viewBox="0 0 200.000000 200.000000"
 preserveAspectRatio="xMidYMid meet">
<metadata>
Created by potrace 1.10, written by Peter Selinger 2001-2011
</metadata>
<g transform="translate(0.000000,200.000000) scale(0.100000,-0.100000)"
fill="#000000" stroke="none">
<path d="M496 1525 c-54 -19 -82 -50 -135 -149 -25 -46 -78 -142 -117 -213
-39 -70 -92 -166 -118 -212 -61 -112 -68 -140 -51 -199 30 -101 131 -148 229
-107 34 15 89 76 101 115 7 23 63 43 116 42 55 -1 99 -25 160 -89 59 -62 99
-83 156 -83 91 1 166 69 179 163 9 65 -31 149 -85 176 -93 48 -157 36 -243
-46 -71 -69 -121 -81 -162 -40 -14 14 -26 32 -26 40 0 7 16 40 36 73 32 53 59
102 157 284 25 47 28 62 24 109 -5 45 -12 60 -42 91 -33 34 -90 61 -126 60 -8
-1 -32 -7 -53 -15z m64 -37 c0 -9 4 -8 11 2 7 10 12 11 15 4 3 -7 15 -9 27 -6
20 5 21 4 8 -12 -13 -16 -13 -17 4 -14 12 2 23 -5 30 -19 7 -13 15 -20 18 -16
4 3 7 0 7 -8 0 -8 3 -25 7 -39 6 -22 5 -24 -10 -11 -9 7 -17 11 -17 8 0 -3 -3
-14 -6 -24 -5 -15 -4 -15 5 -3 9 13 11 12 11 -3 0 -11 4 -15 11 -11 7 4 2 -7
-11 -24 -14 -18 -19 -35 -15 -44 5 -7 4 -10 0 -6 -10 9 -65 -83 -65 -109 0
-16 -2 -16 -11 -3 -8 11 -9 8 -4 -13 3 -16 2 -26 -3 -23 -9 6 -58 -73 -54 -87
1 -5 -2 -6 -7 -3 -15 10 -44 -90 -36 -124 4 -17 11 -27 17 -24 6 4 6 -2 -1
-15 -10 -17 -9 -20 4 -15 8 4 15 1 15 -5 0 -6 -14 -11 -30 -11 -41 0 -83 -23
-100 -54 -7 -14 -17 -26 -22 -26 -4 0 -8 -5 -8 -12 0 -19 -32 -48 -53 -48 -14
0 -17 -5 -13 -16 5 -14 4 -15 -8 -5 -8 7 -17 8 -20 3 -7 -11 -72 0 -105 17
-19 10 -21 15 -10 22 12 7 11 9 -1 9 -8 0 -21 9 -28 20 -9 15 -9 20 0 20 9 0
9 3 0 12 -8 8 -9 15 -1 25 9 10 8 13 -1 13 -9 0 -7 6 5 20 10 11 15 28 12 40
-3 11 -2 18 2 16 3 -2 15 16 25 40 10 24 22 44 28 44 5 0 7 10 4 23 -3 12 -3
16 0 9 8 -17 24 -5 17 13 -3 10 1 15 12 15 15 0 16 2 4 17 -8 9 -9 14 -4 11 6
-3 21 16 34 43 14 27 28 49 33 49 4 0 4 7 1 17 -4 11 -3 14 5 9 7 -4 12 -1 12
9 0 10 14 37 30 62 17 24 26 42 20 38 -6 -3 -7 0 -4 9 3 9 10 13 15 10 5 -3 9
5 9 17 0 12 3 19 6 16 4 -4 20 21 35 54 21 43 33 59 44 56 8 -4 16 2 20 14 10
31 85 54 85 27z m326 -544 c-3 -7 2 -10 13 -7 13 3 20 -2 24 -17 4 -15 11 -21
21 -17 11 5 18 -4 25 -31 14 -54 15 -65 7 -87 -4 -11 -12 -32 -18 -47 -6 -15
-19 -30 -29 -33 -11 -4 -17 -11 -14 -16 3 -5 -2 -6 -11 -2 -11 4 -15 3 -11 -4
5 -8 -15 -11 -63 -10 -38 0 -67 4 -64 9 3 4 -2 8 -10 8 -9 0 -16 7 -16 16 0 8
-4 12 -10 9 -5 -3 -10 1 -10 9 0 9 -19 30 -42 47 -24 17 -42 35 -41 39 1 4 -8
6 -20 3 -15 -4 -12 2 13 17 19 13 54 41 77 63 23 23 52 47 65 54 29 16 121 14
114 -3z"/>
<path d="M1260 796 l0 -166 25 0 c24 0 24 0 27 117 l3 116 48 -72 48 -73 39
54 c76 104 70 107 66 -24 l-4 -118 24 0 24 0 0 165 c0 202 -7 208 -89 85 -29
-44 -56 -80 -60 -79 -3 0 -28 35 -56 77 -34 53 -57 78 -72 80 l-23 3 0 -165z"/>
<path d="M1735 953 c-37 -10 -94 -63 -105 -99 -16 -48 -8 -129 17 -162 31 -43
102 -74 152 -66 70 11 110 56 125 137 l7 37 -81 0 c-73 0 -80 -2 -80 -20 0
-18 7 -20 56 -20 53 0 55 -1 49 -22 -13 -42 -48 -69 -93 -71 -35 -1 -47 4 -77
33 -40 39 -52 83 -35 134 25 77 148 103 184 39 9 -17 16 -19 35 -12 22 9 22
11 9 31 -33 49 -107 76 -163 61z"/>
<path d="M1140 660 c0 -25 4 -30 25 -30 21 0 25 5 25 30 0 25 -4 30 -25 30
-21 0 -25 -5 -25 -30z"/>
</g>
</svg>
