<?xml version="1.0" standalone="no"?>
<!DOCTYPE svg PUBLIC "-//W3C//DTD SVG 20010904//EN"
 "http://www.w3.org/TR/2001/REC-SVG-20010904/DTD/svg10.dtd">
<svg version="1.0" xmlns="http://www.w3.org/2000/svg"
 width="480.000000pt" height="195.000000pt" viewBox="0 0 480.000000 195.000000"
 preserveAspectRatio="xMidYMid meet">

<g transform="translate(0.000000,195.000000) scale(0.100000,-0.100000)"
fill="#000000" stroke="none">
<path d="M560 1470 l0 -480 135 0 135 0 0 160 0 161 133 -3 132 -3 3 -157 3
-158 134 0 135 0 0 480 0 480 -405 0 -405 0 0 -480z m538 158 l3 -108 -136 0
-135 0 0 110 0 111 133 -3 132 -3 3 -107z"/>
<path d="M2336 1775 c-21 -7 -43 -18 -49 -24 -17 -17 -27 -13 -27 9 0 18 -7
20 -80 20 l-80 0 0 -250 0 -250 84 0 85 0 3 154 c3 148 4 156 27 180 30 32 82
35 110 7 22 -22 33 -92 31 -193 -1 -40 -2 -90 -1 -110 l1 -38 85 0 85 0 0 146
c0 178 14 213 86 214 64 0 68 -11 74 -192 l5 -163 88 -3 87 -3 0 164 c0 184
-12 246 -57 289 -74 71 -205 77 -282 13 -36 -31 -42 -31 -71 0 -41 44 -129 57
-204 30z"/>
<path d="M3196 1776 c-54 -20 -85 -45 -121 -95 -38 -54 -47 -156 -20 -226 46
-123 212 -182 330 -120 l48 26 -6 -38 c-4 -20 -18 -48 -32 -62 -23 -23 -33
-26 -103 -26 -60 0 -87 5 -121 22 -25 12 -46 21 -47 20 -7 -9 -54 -108 -54
-115 0 -5 24 -20 53 -32 65 -29 232 -40 302 -20 63 18 120 61 147 112 22 41
23 55 26 301 l3 257 -80 0 c-80 0 -81 0 -81 -25 l0 -25 -40 26 c-49 33 -145
42 -204 20z m184 -141 c90 -47 54 -185 -49 -185 -53 0 -84 15 -105 52 -53 89
57 183 154 133z"/>
<path d="M1550 1360 l0 -190 195 0 195 0 0 190 0 190 -195 0 -195 0 0 -190z"/>
<path d="M7 1494 c-4 -4 -7 -243 -7 -531 l0 -523 415 0 415 0 0 125 0 125
-275 0 -275 0 -2 403 -3 402 -131 3 c-71 1 -133 -1 -137 -4z"/>
<path d="M1370 500 l0 -482 303 4 c328 5 357 9 439 67 145 103 123 350 -38
423 -22 10 -21 11 13 41 96 85 107 234 23 330 -23 25 -62 54 -92 68 -51 23
-62 24 -350 27 l-298 3 0 -481z m516 259 c37 -37 37 -90 1 -127 -27 -26 -30
-27 -150 -27 l-122 0 -3 79 c-2 44 0 86 3 94 4 11 27 13 125 11 113 -4 121 -5
146 -30z m24 -362 c60 -30 64 -123 7 -157 -28 -17 -51 -20 -169 -20 l-138 0 0
95 0 95 138 0 c90 0 146 -5 162 -13z"/>
<path d="M3940 945 c-10 -12 -10 -15 3 -15 8 0 20 7 27 15 10 12 10 15 -3 15
-8 0 -20 -7 -27 -15z"/>
<path d="M3084 900 c-12 -5 -29 -19 -38 -32 -47 -66 29 -148 109 -118 37 14
54 38 54 75 0 37 -17 61 -53 75 -32 12 -43 12 -72 0z m64 -36 c28 -19 28 -55
1 -80 -19 -17 -23 -17 -47 -3 -36 20 -41 61 -10 83 28 20 28 20 56 0z"/>
<path d="M3913 903 c-28 -5 -63 -49 -63 -78 0 -30 34 -71 66 -79 34 -9 91 10
104 34 13 24 13 66 0 90 -8 16 -63 42 -79 39 -3 -1 -16 -4 -28 -6z m69 -47
c20 -30 -4 -86 -35 -86 -25 0 -57 32 -57 55 0 45 68 68 92 31z"/>
<path d="M4444 896 c-39 -17 -46 -28 -46 -72 0 -43 24 -72 66 -79 44 -9 82 9
101 46 22 42 5 86 -41 105 -40 17 -41 17 -80 0z m70 -29 c36 -27 14 -97 -31
-97 -18 0 -53 37 -53 55 0 18 35 55 53 55 7 0 21 -6 31 -13z"/>
<path d="M2432 823 l3 -78 59 0 c71 0 91 22 24 27 l-43 3 -3 63 c-3 54 -5 62
-23 62 -18 0 -20 -6 -17 -77z"/>
<path d="M2645 868 c-7 -18 -23 -54 -34 -80 l-20 -48 20 0 c12 0 23 8 26 20 4
16 14 20 44 20 28 0 41 -5 49 -20 11 -21 40 -28 40 -10 0 5 -14 41 -31 80 -27
59 -36 70 -56 70 -18 0 -28 -9 -38 -32z m54 -30 c11 -28 6 -38 -20 -38 -10 0
-19 3 -19 8 1 20 13 52 21 52 6 0 13 -10 18 -22z"/>
<path d="M2830 820 l0 -80 48 0 c26 0 58 6 72 13 29 15 39 54 15 63 -12 5 -13
10 -4 20 6 7 9 23 7 36 -3 21 -9 23 -70 26 l-68 3 0 -81z m98 38 c3 -14 -3
-18 -27 -18 -25 0 -31 4 -31 21 0 16 5 20 27 17 17 -2 29 -10 31 -20z m10 -65
c-2 -12 -14 -19 -36 -21 -27 -3 -32 0 -32 17 0 17 6 21 36 21 28 0 35 -3 32
-17z"/>
<path d="M3270 820 c0 -73 2 -80 20 -80 15 0 20 7 20 25 0 18 5 25 18 25 10 0
25 -11 32 -25 7 -14 22 -25 32 -25 21 0 23 11 6 28 -9 9 -7 20 7 46 18 32 18
36 2 60 -16 23 -24 26 -77 26 l-60 0 0 -80z m94 45 c22 -22 9 -45 -25 -45 -26
0 -29 4 -29 30 0 23 5 30 19 30 11 0 26 -7 35 -15z"/>
<path d="M3496 833 c-16 -38 -30 -74 -33 -80 -8 -21 26 -14 37 7 8 15 21 20
50 20 30 0 40 -5 45 -20 5 -16 45 -30 45 -16 0 3 -15 39 -34 80 -29 64 -39 76
-59 76 -20 0 -28 -11 -51 -67z m68 5 c9 -35 8 -38 -14 -38 -20 0 -25 15 -14
44 9 23 21 20 28 -6z"/>
<path d="M3670 890 c0 -5 11 -10 25 -10 24 0 25 -2 25 -70 0 -63 2 -70 20 -70
18 0 20 7 20 70 0 68 1 70 25 70 14 0 25 5 25 10 0 6 -30 10 -70 10 -40 0 -70
-4 -70 -10z"/>
<path d="M4090 820 c0 -73 2 -80 20 -80 15 0 20 7 20 25 0 16 6 25 16 25 9 0
25 -11 36 -25 11 -14 26 -25 34 -25 17 0 18 12 2 28 -9 9 -7 20 7 46 18 32 18
36 2 60 -16 23 -24 26 -77 26 l-60 0 0 -80z m100 45 c19 -23 4 -45 -30 -45
-25 0 -30 4 -30 23 0 13 3 27 7 30 11 12 40 8 53 -8z"/>
<path d="M4300 819 c0 -71 2 -80 18 -77 14 3 17 16 20 81 3 72 1 77 -18 77
-18 0 -20 -6 -20 -81z"/>
<path d="M4210 607 c0 -15 72 -17 77 -2 1 6 -15 11 -37 12 -26 2 -40 -2 -40
-10z"/>
<path d="M2430 490 l0 -80 63 0 c53 0 67 4 85 23 22 23 28 60 16 92 -10 25
-59 45 -114 45 l-50 0 0 -80z m114 37 c27 -20 18 -69 -17 -85 -42 -20 -57 -10
-57 41 0 24 3 47 7 50 11 11 48 8 67 -6z"/>
<path d="M2670 490 l0 -80 65 0 c37 0 65 4 65 10 0 6 -20 10 -45 10 -41 0 -45
2 -45 25 0 22 4 25 35 25 19 0 35 5 35 10 0 6 -16 10 -35 10 -28 0 -35 4 -35
20 0 17 7 20 40 20 29 0 40 4 40 15 0 12 -13 15 -60 15 l-60 0 0 -80z"/>
<path d="M2960 490 c0 -73 2 -80 20 -80 18 0 20 7 20 80 0 73 -2 80 -20 80
-18 0 -20 -7 -20 -80z"/>
<path d="M3080 490 c0 -64 3 -80 15 -80 11 0 15 11 15 40 0 22 4 40 10 40 5 0
24 -18 41 -40 18 -22 41 -40 51 -40 16 0 18 9 18 80 0 73 -2 80 -20 80 -17 0
-20 -7 -20 -47 l-1 -48 -40 48 c-59 68 -69 64 -69 -33z"/>
<path d="M3325 545 c-56 -55 -18 -135 64 -135 83 0 118 74 62 131 -38 38 -91
40 -126 4z m100 -25 c27 -29 10 -74 -28 -78 -36 -4 -57 13 -57 47 0 51 50 69
85 31z"/>
<path d="M3529 548 c38 -99 61 -138 81 -138 16 0 27 14 47 58 44 100 45 102
24 102 -12 0 -26 -18 -43 -57 l-25 -58 -27 58 c-19 41 -31 57 -46 57 -16 0
-18 -4 -11 -22z"/>
<path d="M3785 538 c-7 -18 -23 -54 -34 -80 -19 -46 -20 -48 -2 -48 11 0 21 7
25 15 3 10 19 15 46 15 27 0 43 -5 46 -15 5 -13 44 -23 44 -11 0 2 -16 38 -35
80 -41 87 -66 100 -90 44z m53 -43 c11 -23 10 -25 -13 -25 -26 0 -29 7 -19 34
9 23 19 20 32 -9z"/>
<path d="M3985 545 c-33 -32 -34 -83 -2 -113 13 -12 29 -22 35 -22 7 0 12 -7
12 -15 0 -8 5 -15 10 -15 17 0 11 -18 -7 -23 -14 -4 -13 -5 4 -6 24 -1 44 20
25 27 -21 7 -13 23 18 34 42 14 32 34 -14 30 -45 -4 -66 11 -66 49 0 38 37 58
75 41 31 -14 47 5 20 25 -30 21 -83 16 -110 -12z"/>
<path d="M4215 538 c-7 -18 -23 -54 -34 -80 -19 -46 -20 -48 -2 -48 11 0 21 7
25 15 3 10 19 15 45 15 25 0 41 -5 45 -15 4 -12 46 -23 46 -11 0 2 -16 38 -35
80 -41 87 -66 100 -90 44z m53 -43 c11 -23 10 -25 -13 -25 -26 0 -29 7 -19 34
9 23 19 20 32 -9z"/>
<path d="M4415 545 c-33 -32 -34 -83 -1 -114 19 -18 33 -22 71 -19 62 4 91 37
81 92 -12 64 -104 89 -151 41z m99 -21 c19 -18 21 -55 4 -72 -15 -15 -61 -15
-76 0 -7 7 -12 24 -12 40 0 43 53 64 84 32z"/>
<path d="M3023 225 c-83 -36 -67 -140 23 -152 55 -7 84 9 84 47 0 23 -4 30
-20 30 -15 0 -20 -7 -20 -25 0 -20 -5 -25 -24 -25 -46 0 -71 47 -43 82 16 21
38 27 60 16 10 -5 24 -5 35 1 15 8 12 12 -20 25 -44 19 -35 19 -75 1z"/>
<path d="M3235 226 c-30 -13 -55 -51 -55 -82 0 -9 13 -29 29 -45 49 -48 128
-34 152 27 12 34 -12 90 -43 99 -48 14 -54 14 -83 1z m83 -70 c7 -55 -53 -78
-84 -31 -19 29 -12 58 19 73 30 14 61 -7 65 -42z"/>
<path d="M4300 229 c-42 -17 -60 -40 -60 -76 0 -44 37 -83 80 -83 106 0 139
116 45 156 -19 8 -36 14 -37 13 -2 0 -14 -5 -28 -10z m71 -51 c16 -29 3 -67
-25 -74 -36 -9 -66 12 -66 46 0 53 67 74 91 28z"/>
<path d="M2430 150 l0 -80 65 0 c51 0 65 3 65 15 0 11 -12 15 -46 15 -38 0
-45 3 -42 18 2 12 14 18 41 20 54 5 51 32 -4 32 -33 0 -40 3 -37 18 2 12 15
18 46 20 67 5 49 22 -23 22 l-65 0 0 -80z"/>
<path d="M2620 150 c0 -73 2 -80 19 -80 17 0 20 8 23 48 l3 47 22 -37 c12 -21
27 -38 32 -38 5 0 20 17 33 37 l23 38 3 -47 c2 -34 7 -48 18 -48 11 0 14 17
14 80 0 96 -15 105 -56 35 -14 -25 -30 -45 -34 -45 -4 0 -20 20 -34 45 -17 29
-34 45 -46 45 -18 0 -20 -7 -20 -80z"/>
<path d="M3435 153 c45 -103 65 -108 101 -26 45 101 46 103 25 103 -13 0 -25
-16 -40 -50 -12 -27 -25 -50 -29 -50 -4 0 -16 23 -27 50 -15 39 -24 50 -41 50
-22 0 -22 -1 11 -77z"/>
<path d="M3630 150 l0 -80 66 0 c48 0 65 3 62 13 -3 6 -23 13 -46 15 -34 3
-42 7 -42 23 0 15 7 19 35 19 24 0 35 5 35 15 0 10 -11 15 -35 15 -28 0 -35 4
-35 20 0 17 7 20 40 20 22 0 40 5 40 10 0 6 -27 10 -60 10 l-60 0 0 -80z"/>
<path d="M3820 150 c0 -73 2 -80 20 -80 15 0 20 7 20 25 0 15 6 25 14 25 7 0
21 -11 30 -25 9 -14 25 -25 36 -25 20 0 20 1 3 26 -16 24 -16 27 0 36 23 12
22 61 -1 81 -12 11 -36 17 -70 17 l-52 0 0 -80z m86 46 c15 -12 17 -18 8 -33
-6 -10 -21 -19 -33 -21 -18 -3 -21 1 -21 32 0 39 13 46 46 22z"/>
<path d="M4020 150 c0 -73 2 -80 20 -80 17 0 20 7 20 48 l1 47 42 -47 c64 -71
77 -66 77 32 0 73 -2 80 -20 80 -17 0 -20 -7 -20 -47 l-1 -48 -40 48 c-23 26
-50 47 -60 47 -17 0 -19 -8 -19 -80z"/>
</g>
</svg>
