<svg xmlns="http://www.w3.org/2000/svg"  viewBox="0 0 48 48" width="36px" height="36px"><path fill="#a5d6a7" d="M13.533,21.869h8.352l-5.917-5.641c-0.403-0.384-0.415-1.022-0.027-1.421l2.258-2.321 c0.393-0.404,1.041-0.404,1.434,0l5.621,5.779V10c0-0.552,0.448-1,1-1h3.496c0.552,0,1,0.448,1,1v8.264l5.622-5.767 c0.392-0.402,1.039-0.403,1.432,0l2.253,2.309c0.389,0.399,0.377,1.039-0.026,1.423l-5.912,5.625h8.349c0.552,0,1,0.448,1,1v3.23 c0,0.552-0.448,1-1,1h-8.403l5.965,5.796c0.399,0.388,0.405,1.027,0.013,1.422l-2.246,2.263c-0.391,0.394-1.027,0.394-1.418,0.001 l-8.376-8.418l-8.379,8.42c-0.39,0.392-1.025,0.393-1.416,0.002l-2.253-2.253c-0.395-0.395-0.39-1.036,0.01-1.424l5.965-5.794 h-8.396c-0.552,0-1-0.448-1-1v-3.23C12.533,22.316,12.98,21.869,13.533,21.869z"/><path fill="#a5d6a7" d="M26.238,34.589h3.496c0.552,0,1,0.448,1,1V46c0,0.552-0.448,1-1,1h-3.496c-0.552,0-1-0.448-1-1 V35.589C25.238,35.037,25.686,34.589,26.238,34.589z"/><path fill="none" stroke="#18193f" stroke-linecap="round" stroke-linejoin="round" stroke-miterlimit="10" stroke-width="3" d="M26.58,26.739l-1.87-1.879c-0.391-0.393-1.027-0.393-1.418,0l-7.67,7.708c-0.39,0.392-1.025,0.393-1.416,0.002l-2.253-2.253	c-0.395-0.395-0.39-1.036,0.01-1.424l4.197-4.077c0.644-0.626,0.201-1.717-0.697-1.717H9.533c-0.552,0-1-0.448-1-1v-3.23	c0-0.552,0.448-1,1-1h5.854c0.902,0,1.343-1.101,0.69-1.724l-4.109-3.917c-0.403-0.384-0.415-1.022-0.027-1.421l2.258-2.321	c0.393-0.404,1.041-0.404,1.434,0l3.905,4.014c0.626,0.643,1.717,0.2,1.717-0.697v-0.738"/><path fill="none" stroke="#18193f" stroke-linecap="round" stroke-linejoin="round" stroke-miterlimit="10" stroke-width="3" d="M21.253,6c0-0.552,0.448-1,1-1h3.496c0.552,0,1,0.448,1,1v5.805c0,0.897,1.09,1.34,1.716,0.698l3.906-4.007	c0.392-0.402,1.039-0.403,1.432,0l2.253,2.309c0.389,0.399,0.377,1.039-0.026,1.423l-4.1,3.901	c-0.654,0.622-0.214,1.724,0.689,1.724h5.848c0.552,0,1,0.448,1,1v3.23c0,0.552-0.448,1-1,1h-5.939	c-0.898,0-1.341,1.091-0.697,1.717l4.198,4.079c0.399,0.388,0.405,1.027,0.013,1.422l-2.246,2.263	c-0.391,0.394-1.027,0.394-1.418,0.001l-1.966-1.976"/><path fill="none" stroke="#18193f" stroke-linecap="round" stroke-linejoin="round" stroke-miterlimit="10" stroke-width="3" d="M21.238,34.277v-2.687c0-0.552,0.448-1,1-1h3.496c0.552,0,1,0.448,1,1V42c0,0.552-0.448,1-1,1h-3.496c-0.552,0-1-0.448-1-1v-2.064"/></svg>